<?xml version="1.0" standalone="no"?>
<!DOCTYPE svg PUBLIC "-//W3C//DTD SVG 20010904//EN"
 "http://www.w3.org/TR/2001/REC-SVG-20010904/DTD/svg10.dtd">
<svg version="1.0" xmlns="http://www.w3.org/2000/svg"
 width="945.000000pt" height="212.000000pt" viewBox="0 0 945.000000 212.000000"
 preserveAspectRatio="xMidYMid meet">

<g transform="translate(0.000000,212.000000) scale(0.100000,-0.100000)"
fill="#ffffff" stroke="none">
<path d="M6500 1839 c-291 -30 -628 -145 -877 -300 -181 -113 -405 -312 -535
-475 -201 -253 -360 -589 -422 -896 l-23 -113 -7 55 c-59 435 -252 824 -562
1135 -788 791 -2066 792 -2855 3 -246 -246 -426 -558 -513 -888 -28 -107 -56
-266 -56 -322 0 -33 3 -38 24 -38 22 0 23 5 29 75 21 243 125 548 266 779 147
243 400 495 644 645 774 473 1780 357 2418 -280 168 -169 280 -325 380 -532
94 -197 160 -423 176 -611 l6 -76 47 0 47 0 12 75 c7 41 21 109 31 152 10 44
15 79 9 81 -17 6 -10 42 9 42 13 0 25 22 47 87 16 47 57 143 91 212 357 730
1111 1183 1909 1148 524 -24 983 -226 1355 -597 297 -298 489 -656 568 -1061
25 -129 29 -139 50 -139 28 0 28 14 -2 160 -136 652 -557 1194 -1151 1481
-167 81 -312 130 -478 164 -218 43 -430 55 -637 34z"/>
</g>
</svg>
